<mxfile host="app.diagrams.net" agent="Mozilla/5.0 (Windows NT 10.0; Win64; x64) AppleWebKit/537.36 (KHTML, like Gecko) Chrome/140.0.0.0 Safari/537.36 Edg/140.0.0.0" version="27.2.0" pages="2">
  <diagram name="第 1 页" id="uIHZJDAx5TPfTWZh2l_r">
    <mxGraphModel dx="1034" dy="578" grid="1" gridSize="10" guides="1" tooltips="1" connect="1" arrows="1" fold="1" page="1" pageScale="1" pageWidth="827" pageHeight="1169" math="0" shadow="0">
      <root>
        <mxCell id="0" />
        <mxCell id="1" parent="0" />
        <mxCell id="18KqBxI8UVvfbWDHIzOr-47" value="" style="rounded=0;whiteSpace=wrap;html=1;strokeColor=#FF0000;" parent="1" vertex="1">
          <mxGeometry x="60" y="375" width="140" height="65" as="geometry" />
        </mxCell>
        <mxCell id="18KqBxI8UVvfbWDHIzOr-1" value="" style="pointerEvents=1;verticalLabelPosition=bottom;shadow=0;dashed=0;align=center;html=1;verticalAlign=top;shape=mxgraph.electrical.waveforms.pulse_1;" parent="1" vertex="1">
          <mxGeometry x="50" y="150" width="90" height="90" as="geometry" />
        </mxCell>
        <mxCell id="18KqBxI8UVvfbWDHIzOr-3" value="" style="pointerEvents=1;verticalLabelPosition=bottom;shadow=0;dashed=0;align=center;html=1;verticalAlign=top;shape=mxgraph.electrical.waveforms.pulse_1;" parent="1" vertex="1">
          <mxGeometry x="130" y="150" width="90" height="90" as="geometry" />
        </mxCell>
        <mxCell id="18KqBxI8UVvfbWDHIzOr-4" value="" style="pointerEvents=1;verticalLabelPosition=bottom;shadow=0;dashed=0;align=center;html=1;verticalAlign=top;shape=mxgraph.electrical.waveforms.pulse_1;" parent="1" vertex="1">
          <mxGeometry x="210" y="150" width="90" height="90" as="geometry" />
        </mxCell>
        <mxCell id="18KqBxI8UVvfbWDHIzOr-5" value="" style="pointerEvents=1;verticalLabelPosition=bottom;shadow=0;dashed=0;align=center;html=1;verticalAlign=top;shape=mxgraph.electrical.waveforms.pulse_1;" parent="1" vertex="1">
          <mxGeometry x="290" y="150" width="90" height="90" as="geometry" />
        </mxCell>
        <mxCell id="18KqBxI8UVvfbWDHIzOr-6" value="" style="pointerEvents=1;verticalLabelPosition=bottom;shadow=0;dashed=0;align=center;html=1;verticalAlign=top;shape=mxgraph.electrical.waveforms.pulse_1;" parent="1" vertex="1">
          <mxGeometry x="370" y="150" width="90" height="90" as="geometry" />
        </mxCell>
        <mxCell id="18KqBxI8UVvfbWDHIzOr-7" value="" style="pointerEvents=1;verticalLabelPosition=bottom;shadow=0;dashed=0;align=center;html=1;verticalAlign=top;shape=mxgraph.electrical.waveforms.pulse_1;" parent="1" vertex="1">
          <mxGeometry x="450" y="150" width="90" height="90" as="geometry" />
        </mxCell>
        <mxCell id="18KqBxI8UVvfbWDHIzOr-8" value="" style="pointerEvents=1;verticalLabelPosition=bottom;shadow=0;dashed=0;align=center;html=1;verticalAlign=top;shape=mxgraph.electrical.waveforms.pulse_1;" parent="1" vertex="1">
          <mxGeometry x="530" y="150" width="90" height="90" as="geometry" />
        </mxCell>
        <mxCell id="18KqBxI8UVvfbWDHIzOr-17" value="" style="pointerEvents=1;verticalLabelPosition=bottom;shadow=0;dashed=0;align=center;html=1;verticalAlign=top;shape=mxgraph.electrical.waveforms.pulse_1;" parent="1" vertex="1">
          <mxGeometry x="85" y="310" width="20" height="50" as="geometry" />
        </mxCell>
        <mxCell id="18KqBxI8UVvfbWDHIzOr-19" value="" style="pointerEvents=1;verticalLabelPosition=bottom;shadow=0;dashed=0;align=center;html=1;verticalAlign=top;shape=mxgraph.electrical.waveforms.pulse_1;" parent="1" vertex="1">
          <mxGeometry x="70" y="380" width="70" height="50" as="geometry" />
        </mxCell>
        <mxCell id="18KqBxI8UVvfbWDHIzOr-21" value="" style="pointerEvents=1;verticalLabelPosition=bottom;shadow=0;dashed=0;align=center;html=1;verticalAlign=top;shape=mxgraph.electrical.waveforms.pulse_1;" parent="1" vertex="1">
          <mxGeometry x="105" y="310" width="20" height="50" as="geometry" />
        </mxCell>
        <mxCell id="18KqBxI8UVvfbWDHIzOr-22" value="" style="pointerEvents=1;verticalLabelPosition=bottom;shadow=0;dashed=0;align=center;html=1;verticalAlign=top;shape=mxgraph.electrical.waveforms.pulse_1;" parent="1" vertex="1">
          <mxGeometry x="125" y="310" width="20" height="50" as="geometry" />
        </mxCell>
        <mxCell id="18KqBxI8UVvfbWDHIzOr-23" value="" style="pointerEvents=1;verticalLabelPosition=bottom;shadow=0;dashed=0;align=center;html=1;verticalAlign=top;shape=mxgraph.electrical.waveforms.pulse_1;" parent="1" vertex="1">
          <mxGeometry x="145" y="310" width="20" height="50" as="geometry" />
        </mxCell>
        <mxCell id="18KqBxI8UVvfbWDHIzOr-24" value="" style="pointerEvents=1;verticalLabelPosition=bottom;shadow=0;dashed=0;align=center;html=1;verticalAlign=top;shape=mxgraph.electrical.waveforms.pulse_1;" parent="1" vertex="1">
          <mxGeometry x="165" y="310" width="20" height="50" as="geometry" />
        </mxCell>
        <mxCell id="18KqBxI8UVvfbWDHIzOr-25" value="" style="pointerEvents=1;verticalLabelPosition=bottom;shadow=0;dashed=0;align=center;html=1;verticalAlign=top;shape=mxgraph.electrical.waveforms.pulse_1;" parent="1" vertex="1">
          <mxGeometry x="185" y="310" width="20" height="50" as="geometry" />
        </mxCell>
        <mxCell id="18KqBxI8UVvfbWDHIzOr-26" value="" style="pointerEvents=1;verticalLabelPosition=bottom;shadow=0;dashed=0;align=center;html=1;verticalAlign=top;shape=mxgraph.electrical.waveforms.pulse_1;" parent="1" vertex="1">
          <mxGeometry x="205" y="310" width="20" height="50" as="geometry" />
        </mxCell>
        <mxCell id="18KqBxI8UVvfbWDHIzOr-27" value="" style="pointerEvents=1;verticalLabelPosition=bottom;shadow=0;dashed=0;align=center;html=1;verticalAlign=top;shape=mxgraph.electrical.waveforms.pulse_1;" parent="1" vertex="1">
          <mxGeometry x="225" y="310" width="20" height="50" as="geometry" />
        </mxCell>
        <mxCell id="18KqBxI8UVvfbWDHIzOr-28" value="" style="pointerEvents=1;verticalLabelPosition=bottom;shadow=0;dashed=0;align=center;html=1;verticalAlign=top;shape=mxgraph.electrical.waveforms.pulse_1;" parent="1" vertex="1">
          <mxGeometry x="245" y="310" width="20" height="50" as="geometry" />
        </mxCell>
        <mxCell id="18KqBxI8UVvfbWDHIzOr-29" value="" style="pointerEvents=1;verticalLabelPosition=bottom;shadow=0;dashed=0;align=center;html=1;verticalAlign=top;shape=mxgraph.electrical.waveforms.pulse_1;" parent="1" vertex="1">
          <mxGeometry x="265" y="310" width="20" height="50" as="geometry" />
        </mxCell>
        <mxCell id="18KqBxI8UVvfbWDHIzOr-30" value="" style="pointerEvents=1;verticalLabelPosition=bottom;shadow=0;dashed=0;align=center;html=1;verticalAlign=top;shape=mxgraph.electrical.waveforms.pulse_1;" parent="1" vertex="1">
          <mxGeometry x="285" y="310" width="20" height="50" as="geometry" />
        </mxCell>
        <mxCell id="18KqBxI8UVvfbWDHIzOr-31" value="" style="pointerEvents=1;verticalLabelPosition=bottom;shadow=0;dashed=0;align=center;html=1;verticalAlign=top;shape=mxgraph.electrical.waveforms.pulse_1;" parent="1" vertex="1">
          <mxGeometry x="305" y="310" width="20" height="50" as="geometry" />
        </mxCell>
        <mxCell id="18KqBxI8UVvfbWDHIzOr-32" value="" style="pointerEvents=1;verticalLabelPosition=bottom;shadow=0;dashed=0;align=center;html=1;verticalAlign=top;shape=mxgraph.electrical.waveforms.pulse_1;" parent="1" vertex="1">
          <mxGeometry x="325" y="310" width="20" height="50" as="geometry" />
        </mxCell>
        <mxCell id="18KqBxI8UVvfbWDHIzOr-33" value="" style="pointerEvents=1;verticalLabelPosition=bottom;shadow=0;dashed=0;align=center;html=1;verticalAlign=top;shape=mxgraph.electrical.waveforms.pulse_1;" parent="1" vertex="1">
          <mxGeometry x="345" y="310" width="20" height="50" as="geometry" />
        </mxCell>
        <mxCell id="18KqBxI8UVvfbWDHIzOr-34" value="" style="pointerEvents=1;verticalLabelPosition=bottom;shadow=0;dashed=0;align=center;html=1;verticalAlign=top;shape=mxgraph.electrical.waveforms.pulse_1;" parent="1" vertex="1">
          <mxGeometry x="365" y="310" width="20" height="50" as="geometry" />
        </mxCell>
        <mxCell id="18KqBxI8UVvfbWDHIzOr-35" value="" style="pointerEvents=1;verticalLabelPosition=bottom;shadow=0;dashed=0;align=center;html=1;verticalAlign=top;shape=mxgraph.electrical.waveforms.pulse_1;" parent="1" vertex="1">
          <mxGeometry x="385" y="310" width="20" height="50" as="geometry" />
        </mxCell>
        <mxCell id="18KqBxI8UVvfbWDHIzOr-36" value="" style="pointerEvents=1;verticalLabelPosition=bottom;shadow=0;dashed=0;align=center;html=1;verticalAlign=top;shape=mxgraph.electrical.waveforms.pulse_1;" parent="1" vertex="1">
          <mxGeometry x="405" y="310" width="20" height="50" as="geometry" />
        </mxCell>
        <mxCell id="18KqBxI8UVvfbWDHIzOr-37" value="" style="pointerEvents=1;verticalLabelPosition=bottom;shadow=0;dashed=0;align=center;html=1;verticalAlign=top;shape=mxgraph.electrical.waveforms.pulse_1;" parent="1" vertex="1">
          <mxGeometry x="425" y="310" width="20" height="50" as="geometry" />
        </mxCell>
        <mxCell id="18KqBxI8UVvfbWDHIzOr-38" value="" style="pointerEvents=1;verticalLabelPosition=bottom;shadow=0;dashed=0;align=center;html=1;verticalAlign=top;shape=mxgraph.electrical.waveforms.pulse_1;" parent="1" vertex="1">
          <mxGeometry x="445" y="310" width="20" height="50" as="geometry" />
        </mxCell>
        <mxCell id="18KqBxI8UVvfbWDHIzOr-39" value="" style="pointerEvents=1;verticalLabelPosition=bottom;shadow=0;dashed=0;align=center;html=1;verticalAlign=top;shape=mxgraph.electrical.waveforms.pulse_1;" parent="1" vertex="1">
          <mxGeometry x="465" y="310" width="20" height="50" as="geometry" />
        </mxCell>
        <mxCell id="18KqBxI8UVvfbWDHIzOr-40" value="" style="pointerEvents=1;verticalLabelPosition=bottom;shadow=0;dashed=0;align=center;html=1;verticalAlign=top;shape=mxgraph.electrical.waveforms.pulse_1;" parent="1" vertex="1">
          <mxGeometry x="485" y="310" width="20" height="50" as="geometry" />
        </mxCell>
        <mxCell id="18KqBxI8UVvfbWDHIzOr-41" value="" style="pointerEvents=1;verticalLabelPosition=bottom;shadow=0;dashed=0;align=center;html=1;verticalAlign=top;shape=mxgraph.electrical.waveforms.pulse_1;" parent="1" vertex="1">
          <mxGeometry x="130" y="380" width="70" height="50" as="geometry" />
        </mxCell>
        <mxCell id="18KqBxI8UVvfbWDHIzOr-42" value="" style="pointerEvents=1;verticalLabelPosition=bottom;shadow=0;dashed=0;align=center;html=1;verticalAlign=top;shape=mxgraph.electrical.waveforms.pulse_1;" parent="1" vertex="1">
          <mxGeometry x="195" y="380" width="70" height="50" as="geometry" />
        </mxCell>
        <mxCell id="18KqBxI8UVvfbWDHIzOr-43" value="" style="pointerEvents=1;verticalLabelPosition=bottom;shadow=0;dashed=0;align=center;html=1;verticalAlign=top;shape=mxgraph.electrical.waveforms.pulse_1;" parent="1" vertex="1">
          <mxGeometry x="255" y="380" width="70" height="50" as="geometry" />
        </mxCell>
        <mxCell id="18KqBxI8UVvfbWDHIzOr-44" value="" style="pointerEvents=1;verticalLabelPosition=bottom;shadow=0;dashed=0;align=center;html=1;verticalAlign=top;shape=mxgraph.electrical.waveforms.pulse_1;" parent="1" vertex="1">
          <mxGeometry x="315" y="380" width="70" height="50" as="geometry" />
        </mxCell>
        <mxCell id="18KqBxI8UVvfbWDHIzOr-45" value="" style="pointerEvents=1;verticalLabelPosition=bottom;shadow=0;dashed=0;align=center;html=1;verticalAlign=top;shape=mxgraph.electrical.waveforms.pulse_1;" parent="1" vertex="1">
          <mxGeometry x="378" y="380" width="70" height="50" as="geometry" />
        </mxCell>
        <mxCell id="O_kn9OHKNggGzdGC8hl1-1" value="&lt;font style=&quot;font-size: 20px;&quot;&gt;&lt;b&gt;SPI:&lt;/b&gt;&lt;/font&gt;" style="text;html=1;align=center;verticalAlign=middle;resizable=0;points=[];autosize=1;strokeColor=none;fillColor=none;" parent="1" vertex="1">
          <mxGeometry x="30" y="520" width="60" height="40" as="geometry" />
        </mxCell>
        <mxCell id="O_kn9OHKNggGzdGC8hl1-3" value="" style="shape=hexagon;perimeter=hexagonPerimeter2;whiteSpace=wrap;html=1;fixedSize=1;" parent="1" vertex="1">
          <mxGeometry x="125" y="720" width="80" height="30" as="geometry" />
        </mxCell>
        <mxCell id="O_kn9OHKNggGzdGC8hl1-5" value="" style="shape=hexagon;perimeter=hexagonPerimeter2;whiteSpace=wrap;html=1;fixedSize=1;" parent="1" vertex="1">
          <mxGeometry x="205" y="720" width="80" height="30" as="geometry" />
        </mxCell>
        <mxCell id="O_kn9OHKNggGzdGC8hl1-6" value="" style="shape=hexagon;perimeter=hexagonPerimeter2;whiteSpace=wrap;html=1;fixedSize=1;" parent="1" vertex="1">
          <mxGeometry x="285" y="720" width="80" height="30" as="geometry" />
        </mxCell>
        <mxCell id="O_kn9OHKNggGzdGC8hl1-7" value="" style="shape=hexagon;perimeter=hexagonPerimeter2;whiteSpace=wrap;html=1;fixedSize=1;" parent="1" vertex="1">
          <mxGeometry x="365" y="720" width="80" height="30" as="geometry" />
        </mxCell>
        <mxCell id="O_kn9OHKNggGzdGC8hl1-8" value="" style="shape=hexagon;perimeter=hexagonPerimeter2;whiteSpace=wrap;html=1;fixedSize=1;" parent="1" vertex="1">
          <mxGeometry x="445" y="720" width="80" height="30" as="geometry" />
        </mxCell>
        <mxCell id="O_kn9OHKNggGzdGC8hl1-10" value="" style="shape=hexagon;perimeter=hexagonPerimeter2;whiteSpace=wrap;html=1;fixedSize=1;" parent="1" vertex="1">
          <mxGeometry x="525" y="720" width="80" height="30" as="geometry" />
        </mxCell>
        <mxCell id="O_kn9OHKNggGzdGC8hl1-11" value="" style="endArrow=none;html=1;rounded=0;entryX=0;entryY=0.5;entryDx=0;entryDy=0;" parent="1" target="O_kn9OHKNggGzdGC8hl1-3" edge="1">
          <mxGeometry width="50" height="50" relative="1" as="geometry">
            <mxPoint x="30" y="735" as="sourcePoint" />
            <mxPoint x="120" y="740" as="targetPoint" />
          </mxGeometry>
        </mxCell>
        <mxCell id="O_kn9OHKNggGzdGC8hl1-12" value="" style="endArrow=none;html=1;rounded=0;entryX=0;entryY=0.5;entryDx=0;entryDy=0;" parent="1" edge="1">
          <mxGeometry width="50" height="50" relative="1" as="geometry">
            <mxPoint x="605" y="734.5" as="sourcePoint" />
            <mxPoint x="700" y="734.5" as="targetPoint" />
          </mxGeometry>
        </mxCell>
        <mxCell id="O_kn9OHKNggGzdGC8hl1-13" value="" style="endArrow=none;html=1;rounded=0;entryX=0.068;entryY=0.992;entryDx=0;entryDy=0;entryPerimeter=0;" parent="1" target="O_kn9OHKNggGzdGC8hl1-15" edge="1">
          <mxGeometry width="50" height="50" relative="1" as="geometry">
            <mxPoint x="30" y="840" as="sourcePoint" />
            <mxPoint x="140" y="840" as="targetPoint" />
          </mxGeometry>
        </mxCell>
        <mxCell id="O_kn9OHKNggGzdGC8hl1-14" value="" style="endArrow=none;html=1;rounded=0;entryX=0;entryY=0.5;entryDx=0;entryDy=0;" parent="1" edge="1">
          <mxGeometry width="50" height="50" relative="1" as="geometry">
            <mxPoint x="605" y="840" as="sourcePoint" />
            <mxPoint x="700" y="840" as="targetPoint" />
          </mxGeometry>
        </mxCell>
        <mxCell id="O_kn9OHKNggGzdGC8hl1-15" value="" style="pointerEvents=1;verticalLabelPosition=bottom;shadow=0;dashed=0;align=center;html=1;verticalAlign=top;shape=mxgraph.electrical.waveforms.pulse_1;" parent="1" vertex="1">
          <mxGeometry x="145" y="790" width="85" height="50" as="geometry" />
        </mxCell>
        <mxCell id="O_kn9OHKNggGzdGC8hl1-16" value="" style="pointerEvents=1;verticalLabelPosition=bottom;shadow=0;dashed=0;align=center;html=1;verticalAlign=top;shape=mxgraph.electrical.waveforms.pulse_1;" parent="1" vertex="1">
          <mxGeometry x="210" y="790" width="100" height="50" as="geometry" />
        </mxCell>
      </root>
    </mxGraphModel>
  </diagram>
  <diagram id="a85pgy9SSrxTLTi4Z7H8" name="第 2 页">
    <mxGraphModel dx="1034" dy="578" grid="1" gridSize="10" guides="1" tooltips="1" connect="1" arrows="1" fold="1" page="1" pageScale="1" pageWidth="827" pageHeight="1169" math="0" shadow="0">
      <root>
        <mxCell id="0" />
        <mxCell id="1" parent="0" />
        <mxCell id="wXPIY55r4MUgAJ4IskKx-3" style="edgeStyle=orthogonalEdgeStyle;rounded=0;orthogonalLoop=1;jettySize=auto;html=1;" edge="1" parent="1" source="wXPIY55r4MUgAJ4IskKx-1" target="wXPIY55r4MUgAJ4IskKx-2">
          <mxGeometry relative="1" as="geometry" />
        </mxCell>
        <mxCell id="wXPIY55r4MUgAJ4IskKx-1" value="ahb_lite_ms" style="whiteSpace=wrap;html=1;aspect=fixed;" vertex="1" parent="1">
          <mxGeometry x="110" y="130" width="80" height="80" as="geometry" />
        </mxCell>
        <mxCell id="wXPIY55r4MUgAJ4IskKx-2" value="输出的是32bit(4 byte)的数据，会按字节为最小单位" style="whiteSpace=wrap;html=1;" vertex="1" parent="1">
          <mxGeometry x="90" y="270" width="120" height="60" as="geometry" />
        </mxCell>
      </root>
    </mxGraphModel>
  </diagram>
</mxfile>
